<svg width="148" height="48" viewBox="0 0 148 48" fill="none" xmlns="http://www.w3.org/2000/svg">
<path d="M21.3996 12.96C22.2693 13.3197 22.7512 13.8139 23.3646 14.52C23.9322 15.1719 24.4975 15.8172 25.098 16.4391C26.8067 18.222 28.0215 20.1465 28.1496 22.6716C28.0432 24.828 27.2843 26.5844 25.7196 28.08C24.1157 29.2106 22.8184 29.5465 20.868 29.5538C20.5266 29.5582 20.1852 29.5629 19.8438 29.5678C19.3087 29.5748 18.7738 29.58 18.2386 29.5801C17.7199 29.5809 17.2017 29.5892 16.683 29.5988C16.3736 29.601 16.0643 29.6033 15.7456 29.6056C14.4343 29.8508 13.9376 30.6713 13.1646 31.695C12.5227 32.8848 12.5997 34.2098 12.7596 35.52C13.0968 36.3569 13.0968 36.3569 13.4796 36.96C13.4004 37.1184 13.3212 37.2768 13.2396 37.44C11.2046 36.3193 9.88663 35.0329 9.08644 32.8172C8.55551 30.7263 8.80983 28.7481 9.87956 26.88C11.48 24.611 13.5568 23.4058 16.0585 22.336C17.768 21.5816 19.1046 20.598 20.0346 18.945C20.1475 18.7492 20.2604 18.5534 20.3767 18.3516C20.9704 17.1918 21.229 16.2637 21.3096 14.955C21.3275 14.6818 21.3454 14.4087 21.3639 14.1272C21.3841 13.7385 21.3996 13.3493 21.3996 12.96Z" fill="#3069F8"/>
<path d="M111.159 18.96C111.759 19.365 111.759 19.365 112.119 19.68C112.278 19.284 112.436 18.888 112.599 18.48C113.708 18.48 114.817 18.48 115.959 18.48C115.981 20.2181 115.999 21.956 116.009 23.6942C116.014 24.5015 116.021 25.3088 116.032 26.1161C116.043 27.0473 116.049 27.9784 116.053 28.9097C116.06 29.3381 116.06 29.3381 116.068 29.7752C116.069 31.757 115.89 33.7734 114.54 35.3291C112.728 37.0417 110.673 37.5219 108.226 37.4925C106.202 37.3331 104.325 36.6581 102.519 35.76C102.677 34.9688 102.974 34.3581 103.374 33.66C103.483 33.4682 103.593 33.2764 103.705 33.0788C103.789 32.934 103.873 32.7892 103.959 32.64C104.217 32.7885 104.474 32.937 104.739 33.09C106.514 33.9695 108.548 34.3515 110.477 33.7959C111.216 33.4687 111.508 33.1117 111.879 32.4C112.019 31.7511 112.074 31.146 112.119 30.48C111.892 30.6285 111.664 30.777 111.429 30.93C110.016 31.7278 108.522 32.0767 106.914 31.77C104.758 31.1665 103.441 29.9752 102.324 28.05C101.543 26.1579 101.587 24.2405 102.302 22.335C102.999 20.7473 104.108 19.4649 105.681 18.7097C107.612 18.0004 109.302 18.0477 111.159 18.96ZM106.284 22.83C105.731 23.7727 105.593 24.5921 105.639 25.68C106.011 26.9396 106.469 27.5932 107.559 28.32C108.334 28.7073 109.119 28.6676 109.959 28.56C110.896 28.236 111.519 27.7667 112.104 26.955C112.431 25.936 112.532 25.0595 112.359 24C111.879 23.0736 111.377 22.3213 110.439 21.84C108.723 21.4166 107.617 21.6049 106.284 22.83Z" fill="#1B1B1B"/>
<path d="M35.6351 14.295C35.8347 14.2963 36.0343 14.2976 36.2399 14.2989C38.3757 14.3515 39.9937 14.9662 41.8001 16.08C41.6607 16.9825 41.4036 17.6473 40.9451 18.435C40.8359 18.6246 40.7267 18.8143 40.6142 19.0097C40.4884 19.2227 40.4884 19.2227 40.3601 19.44C40.1807 19.3562 40.0012 19.2723 39.8164 19.1859C39.58 19.0767 39.3436 18.9675 39.1001 18.855C38.8662 18.7464 38.6323 18.6378 38.3914 18.5259C37.372 18.0917 36.5486 17.9626 35.4401 17.955C35.2149 17.9516 34.9897 17.9482 34.7576 17.9447C34.1057 18.0012 33.7171 18.1476 33.1601 18.48C33.1601 19.0344 33.1601 19.5888 33.1601 20.16C34.3474 20.6103 35.5338 21.0489 36.7545 21.4003C40.9615 22.6142 40.9615 22.6142 42.1507 24.2391C42.9029 25.655 42.8909 27.0218 42.5201 28.56C41.7252 30.1498 40.5399 31.0764 38.9351 31.755C35.8859 32.7687 32.8045 32.2062 29.9792 30.8156C29.3505 30.4768 28.7321 30.1279 28.1201 29.76C28.4217 28.9554 28.7651 28.247 29.2301 27.525C29.3372 27.3576 29.4442 27.1903 29.5545 27.0178C29.6761 26.8308 29.6761 26.8308 29.8001 26.64C30.9493 26.861 31.9213 27.455 32.9501 27.99C34.2776 28.6249 35.5418 28.6976 37.0001 28.56C37.8413 28.2408 37.8413 28.2408 38.4401 27.84C38.5403 27.1503 38.5403 27.1503 38.4401 26.4C37.2366 25.4246 35.5719 25.1941 34.1018 24.8222C31.9646 24.2492 30.3828 23.4159 29.0801 21.6C28.6257 20.2367 28.619 18.7822 29.2151 17.46C30.6215 15.0174 32.9483 14.2615 35.6351 14.295Z" fill="#1B1B1B"/>
<path d="M58.5996 13.44C59.8668 13.44 61.134 13.44 62.4396 13.44C62.5188 15.42 62.598 17.4 62.6796 19.44C63.3132 19.1232 63.9468 18.8064 64.5996 18.48C66.2963 18.0558 67.8454 18.1322 69.3996 18.96C70.503 19.9273 71.4719 21.0526 71.6012 22.5672C71.6151 23.162 71.6135 23.7548 71.6065 24.3497C71.6058 24.5664 71.6051 24.7831 71.6044 25.0064C71.6017 25.696 71.5957 26.3855 71.5896 27.075C71.5872 27.5436 71.585 28.0122 71.583 28.4808C71.5778 29.6272 71.5695 30.7736 71.5596 31.92C70.3716 31.92 69.1836 31.92 67.9596 31.92C67.9189 31.09 67.879 30.26 67.8396 29.43C67.8282 29.1983 67.8167 28.9666 67.8049 28.7278C67.7427 27.403 67.7097 26.0854 67.7286 24.7592C67.7142 23.9287 67.5928 23.3125 67.2396 22.56C66.2354 21.8837 65.6069 21.762 64.4196 21.975C63.7984 22.1151 63.4763 22.2459 63.0171 22.69C62.5394 23.5251 62.5646 24.3263 62.5568 25.2638C62.5525 25.4542 62.5482 25.6446 62.5437 25.8408C62.5308 26.4472 62.5226 27.0535 62.5146 27.66C62.5066 28.0719 62.4984 28.4838 62.4898 28.8956C62.4688 29.9038 62.4544 30.9117 62.4396 31.92C61.1724 31.92 59.9052 31.92 58.5996 31.92C58.5996 25.8216 58.5996 19.7232 58.5996 13.44Z" fill="#1B1B1B"/>
<path d="M54.5793 19.365C55.6569 20.2711 56.1447 21.4398 56.4393 22.8C56.4594 23.4983 56.4672 24.1906 56.4628 24.8887C56.4624 25.0898 56.4621 25.2909 56.4617 25.498C56.4604 26.1387 56.4574 26.7793 56.4543 27.42C56.4531 27.855 56.452 28.29 56.4511 28.725C56.4484 29.79 56.4443 30.855 56.4393 31.92C55.2513 31.92 54.0633 31.92 52.8393 31.92C52.7205 31.4448 52.7205 31.4448 52.5993 30.96C52.3766 31.1134 52.1538 31.2669 51.9243 31.425C50.4073 32.4066 48.8374 32.2984 47.0793 32.16C45.6369 31.7692 44.8134 30.9504 43.9593 29.76C43.4855 28.8123 43.6141 27.6729 43.7193 26.64C44.3529 25.3494 45.2288 24.5147 46.5543 23.955C48.417 23.4802 50.7463 23.1423 52.5993 23.76C52.2185 22.5033 52.2185 22.5033 51.2343 21.735C49.5682 21.4521 48.3976 21.565 46.8347 22.1625C46.3593 22.32 46.3593 22.32 45.6393 22.32C45.4715 21.9764 45.3071 21.631 45.1443 21.285C45.0525 21.0929 44.9606 20.9007 44.8659 20.7028C44.6793 20.16 44.6793 20.16 44.9193 19.44C45.4256 19.1681 45.4256 19.1681 46.0593 18.93C46.266 18.8502 46.4727 18.7704 46.6856 18.6881C49.4436 17.7824 52.0453 18.0493 54.5793 19.365ZM47.3193 27.12C47.2201 27.9854 47.2201 27.9854 47.5593 28.8C48.3932 29.4671 49.061 29.5693 50.0943 29.49C50.9838 29.3535 51.6393 29.1225 52.3593 28.56C52.6338 28.0111 52.6241 27.6978 52.6143 27.09C52.6094 26.7831 52.6044 26.4762 52.5993 26.16C51.9441 26.134 51.2899 26.115 50.6343 26.1C50.4498 26.0919 50.2653 26.0839 50.0751 26.0756C48.8624 26.0548 48.1697 26.1629 47.3193 27.12Z" fill="#1B1B1B"/>
<path d="M72.2793 18.48C73.5465 18.48 74.8137 18.48 76.1193 18.48C77.2985 21.2567 78.3862 24.0685 79.4793 26.88C79.9943 26.1075 80.2759 25.3397 80.5752 24.4706C80.6326 24.3071 80.6899 24.1435 80.749 23.975C80.9317 23.4537 81.1131 22.9319 81.2943 22.41C81.4764 21.8864 81.6589 21.363 81.8421 20.8398C81.9561 20.5145 82.0694 20.1889 82.1819 19.863C82.5723 18.7469 82.5723 18.7469 82.8393 18.48C83.4466 18.4624 84.0472 18.4578 84.6543 18.465C84.9102 18.4666 84.9102 18.4666 85.1713 18.4683C85.594 18.4711 86.0166 18.4754 86.4393 18.48C86.283 19.9276 85.7522 21.2174 85.2374 22.5675C85.1405 22.8238 85.0436 23.0802 84.9438 23.3443C84.7383 23.8868 84.5321 24.429 84.3252 24.971C84.0133 25.7896 83.7046 26.6094 83.3962 27.4294C80.2145 35.833 80.2145 35.833 77.5593 37.05C75.7039 37.4365 74.4402 36.9975 72.7593 36.24C73.0738 35.2237 73.4658 34.3022 73.9593 33.36C74.8305 33.4392 75.7017 33.5184 76.5993 33.6C77.1409 32.968 77.1409 32.968 77.5593 32.16C77.2276 30.7577 76.5433 29.4103 75.9824 28.0847C75.7652 27.5677 75.548 27.0506 75.3309 26.5336C74.989 25.7212 74.6468 24.909 74.3037 24.0971C73.9722 23.3117 73.6422 22.5258 73.3124 21.7397C73.2089 21.4959 73.1054 21.2522 72.9988 21.001C72.857 20.6621 72.857 20.6621 72.7123 20.3164C72.5866 20.0183 72.5866 20.0183 72.4583 19.7142C72.2793 19.2 72.2793 19.2 72.2793 18.48Z" fill="#1B1B1B"/>
<path d="M98.2744 19.605C99.8113 20.8593 100.685 22.523 100.892 24.5006C100.979 26.5779 100.413 28.4425 99.0966 30.059C97.5626 31.6069 95.7196 32.2276 93.5644 32.25C91.2699 32.2118 89.736 31.5843 88.0707 30.0056C86.5519 28.2954 86.255 26.6316 86.3391 24.374C86.558 22.5105 87.4041 20.9051 88.8394 19.68C91.7909 17.8513 95.3251 17.5742 98.2744 19.605ZM90.5644 23.1C90.0303 24.3369 89.8869 25.4068 90.2944 26.685C90.7258 27.6721 91.2764 28.2253 92.1994 28.8C93.2526 29.1707 94.1113 29.1231 95.1394 28.695C96.1931 28.0935 96.6569 27.3062 96.9994 26.16C97.1604 24.8492 96.8933 23.9618 96.2794 22.8C95.6212 22.0184 95.1437 21.6632 94.1073 21.5428C92.5248 21.4909 91.593 21.8232 90.5644 23.1Z" fill="#1B1B1B"/>
<path d="M144.834 19.605C146.135 20.6635 147.052 22.1168 147.399 23.76C147.594 26.2112 147.251 28.043 145.719 30C144.257 31.5258 142.836 32.1685 140.724 32.2566C138.18 32.2985 136.489 31.7181 134.614 29.985C133.205 28.4044 132.911 26.6216 132.934 24.5653C133.095 22.5829 134.154 20.9709 135.639 19.68C138.532 17.8583 141.939 17.6073 144.834 19.605ZM137.094 23.175C136.638 24.653 136.561 26.0515 137.229 27.465C138.107 28.4117 138.774 28.9819 140.079 29.145C141.327 28.9891 142.07 28.6408 142.914 27.705C143.74 26.5118 143.699 25.4234 143.559 24C143.255 23.0312 142.777 22.4449 141.939 21.855C139.994 21.219 138.369 21.4889 137.094 23.175Z" fill="#5B30F8"/>
<path d="M15.3996 6.96002C17.0232 7.0615 18.2709 8.31488 19.3146 9.46502C20.5627 11.0217 20.9585 12.672 20.9196 14.64C20.5798 17.2234 19.468 19.2797 17.4677 20.9531C16.3425 21.682 15.1055 22.1608 13.8659 22.6613C13.1466 22.9757 12.6487 23.2852 12.0396 23.76C11.3187 23.6964 11.1197 23.5601 10.5996 23.04C10.6469 21.8892 11.2954 21.0706 11.9346 20.16C12.1538 19.8394 12.3725 19.5184 12.5909 19.1972C12.7002 19.0368 12.8096 18.8765 12.9223 18.7112C15.8832 14.5148 15.8832 14.5148 16.5996 9.60002C16.3415 8.84457 16.0111 8.14568 15.6396 7.44002C15.5604 7.28162 15.4812 7.12322 15.3996 6.96002Z" fill="#5B30F8"/>
<path d="M7.7202 21.12C8.29198 21.6394 8.83208 22.1861 9.3702 22.74C9.51251 22.8845 9.65482 23.029 9.80145 23.1778C10.1488 23.5308 10.4947 23.8852 10.8402 24.24C10.5019 24.9606 10.1008 25.5867 9.6402 26.235C8.442 28.0308 8.33178 29.8112 8.2002 31.92C6.87586 31.3675 5.9596 30.2395 4.96465 29.2402C4.60345 28.8783 4.23918 28.5196 3.87457 28.1611C1.22726 25.5323 1.22726 25.5323 0.864258 23.85C0.866289 22.6152 0.986713 21.7054 1.79707 20.7394C3.79349 19.0587 5.81502 19.7278 7.7202 21.12Z" fill="#1B1B1B"/>
<path d="M129.534 18.45C129.958 18.4491 129.958 18.4491 130.39 18.4481C131.079 18.48 131.079 18.48 131.319 18.72C131.342 19.1325 131.348 19.5459 131.347 19.959C131.347 20.2232 131.347 20.4875 131.347 20.7597C131.345 21.0472 131.344 21.3347 131.343 21.6309C131.343 21.9236 131.342 22.2162 131.342 22.5177C131.341 23.4568 131.338 24.3959 131.334 25.335C131.333 25.9698 131.332 26.6047 131.331 27.2395C131.329 28.7997 131.324 30.3598 131.319 31.92C130.052 31.92 128.785 31.92 127.479 31.92C127.479 27.564 127.479 23.208 127.479 18.72C128.167 18.376 128.769 18.4483 129.534 18.45Z" fill="#5B30F8"/>
<path d="M119.358 18.4565C119.822 18.4607 119.822 18.4607 120.295 18.465C120.605 18.4671 120.914 18.4693 121.233 18.4715C121.473 18.4743 121.713 18.4771 121.96 18.48C122.187 19.2484 122.231 19.9403 122.232 20.7403C122.232 21.1286 122.232 21.1286 122.233 21.5247C122.232 21.802 122.231 22.0793 122.23 22.365C122.229 22.6495 122.229 22.9341 122.229 23.2273C122.215 26.1281 122.1 29.0229 121.96 31.92C120.772 31.92 119.584 31.92 118.36 31.92C118.354 30.0445 118.35 28.169 118.347 26.2935C118.346 25.6549 118.344 25.0163 118.342 24.3777C118.339 23.4621 118.338 22.5465 118.336 21.6309C118.335 21.3434 118.334 21.0559 118.333 20.7597C118.333 20.4955 118.333 20.2312 118.333 19.9589C118.332 19.725 118.332 19.491 118.331 19.25C118.377 18.406 118.492 18.4833 119.358 18.4565Z" fill="#1B1B1B"/>
<path d="M11.1397 14.97C11.4237 14.9858 11.4237 14.9858 11.7135 15.0019C12.5745 15.0543 13.3651 15.1316 14.1997 15.36C13.6712 16.8121 12.7988 18.0045 11.9347 19.275C11.7712 19.5214 11.6077 19.7679 11.4393 20.0217C11.2024 20.371 11.2024 20.371 10.9607 20.7272C10.8167 20.9408 10.6727 21.1543 10.5243 21.3744C10.324 21.6049 10.324 21.6049 10.1197 21.84C9.2271 21.84 9.1143 21.6448 8.48473 21.045C7.17085 19.8604 5.93041 19.1874 4.11973 19.2C3.30772 19.316 2.51562 19.4827 1.71973 19.68C2.64309 17.6338 3.95361 16.2503 6.05473 15.39C7.70105 14.8002 9.42438 14.8557 11.1397 14.97Z" fill="#1B1B1B"/>
<path d="M14.0196 7.005C14.8758 7.56936 15.4217 8.20426 15.8796 9.12C16.0626 10.761 15.9203 11.8746 14.9196 13.2C13.956 14.0259 12.8051 14.2285 11.5596 14.16C10.279 13.779 9.40568 13.1328 8.67955 12C8.30655 10.881 8.30888 9.963 8.70955 8.85C9.96681 6.92221 11.8275 6.20407 14.0196 7.005Z" fill="#5B30F8"/>
<path d="M18.5049 30.6356C19.6144 31.1952 20.278 31.9407 20.6799 33.12C20.8963 34.3913 20.6753 35.4068 19.9599 36.48C19.0754 37.3742 18.308 37.8702 17.0349 37.995C15.7721 37.8915 14.7434 37.5477 13.8652 36.5981C13.1511 35.5132 13.0106 34.3892 13.2399 33.12C14.2892 31.0603 16.1977 29.8635 18.5049 30.6356Z" fill="#1B1B1B"/>
<path d="M121.046 13.2956C121.479 13.44 121.479 13.44 121.959 13.83C122.298 14.6349 122.307 15.2156 122.199 16.08C121.706 16.8008 121.365 16.9999 120.534 17.265C119.643 17.2832 119.289 17.1152 118.599 16.56C118.14 15.9545 118.118 15.6462 118.134 14.88C118.61 13.3589 119.582 13.0138 121.046 13.2956Z" fill="#1B1B1B"/>
<path d="M130.6 13.44C131.164 13.8166 131.29 14.0816 131.53 14.715C131.57 15.5826 131.288 16.0687 130.84 16.8C130.07 17.1847 129.274 17.1555 128.44 17.04C127.84 16.665 127.84 16.665 127.48 16.08C127.36 15.24 127.36 15.24 127.48 14.4C128.448 13.1739 129.1 13.1243 130.6 13.44Z" fill="#5B30F8"/>
<path d="M125.11 28.575C126.142 28.9117 126.142 28.9117 126.52 29.52C126.64 30.21 126.64 30.21 126.52 30.96C126.01 31.665 126.01 31.665 125.32 32.16C124.544 32.16 124.092 32.0476 123.43 31.65C122.986 30.9108 123.042 30.3589 123.16 29.52C123.802 28.7648 124.112 28.5551 125.11 28.575Z" fill="#1B1B1B"/>
<path d="M104.68 19.2C104.838 19.2792 104.997 19.3584 105.16 19.44C104.892 19.7614 104.621 20.0811 104.35 20.4C104.2 20.5782 104.049 20.7564 103.894 20.94C103.689 21.1479 103.689 21.1479 103.48 21.36C103.322 21.36 103.163 21.36 103 21.36C103.373 20.444 103.969 19.8739 104.68 19.2Z" fill="#1B1B1B"/>
<path d="M30.9996 15.36C31.158 15.4392 31.3164 15.5184 31.4796 15.6C31.0836 16.0752 30.6876 16.5504 30.2796 17.04C30.042 16.9608 29.8044 16.8816 29.5596 16.8C30.0348 16.3248 30.51 15.8496 30.9996 15.36Z" fill="#1B1B1B"/>
</svg>
